<svg xmlns="http://www.w3.org/2000/svg" viewBox="0 -0.5 88 109" shape-rendering="crispEdges">
<path stroke="#303454" d="M39 0h1M28 3h1M40 5h1M45 8h1M25 10h1M38 10h1M20 13h1M38 39h1M68 47h1M69 70h1M17 80h1M43 95h3M40 96h6M47 96h2M40 97h3M45 97h1M39 98h2M42 98h1M44 98h2M41 99h1M44 99h1M46 99h1M48 99h2M39 100h2M42 100h6M40 101h1M43 101h3M47 101h2M43 102h5M41 103h2M44 103h1M46 103h2M50 103h1M40 104h1M46 105h1M46 106h1M41 107h1M43 107h1M45 107h1" />
<path stroke="#414041" d="M40 0h1M42 0h2M39 1h3M43 1h1M45 1h2M48 1h2M51 1h1M37 2h3M41 2h1M43 2h5M50 2h2M36 3h2M39 3h1M41 3h1M43 3h2M46 3h1M57 3h1M37 4h8M50 4h2M36 5h1M38 5h2M41 5h2M44 5h3M56 5h1M34 6h1M37 6h1M40 6h1M50 6h2M24 7h1M35 7h1M43 7h6M20 8h1M24 8h2M35 8h1M40 8h5M50 8h1M67 8h1M19 9h2M24 9h1M32 9h2M35 9h2M39 9h1M42 9h2M48 9h1M52 9h1M19 10h1M23 10h1M36 10h2M39 10h1M42 10h5M48 10h1M50 10h2M17 11h1M20 11h1M23 11h1M25 11h1M32 11h1M38 11h2M41 11h1M43 11h1M45 11h2M48 11h1M52 11h1M17 12h1M22 12h1M35 12h5M41 12h6M50 12h1M17 13h1M32 13h1M34 13h1M36 13h1M38 13h2M41 13h2M45 13h2M38 14h1M36 15h2M46 15h1M49 15h1M43 16h4M48 17h2M53 17h1M11 19h1M35 37h1M60 37h2M24 38h1M51 38h1M53 38h1M56 38h1M60 38h1M62 38h1M65 38h1M71 38h1M54 39h1M58 39h1M64 39h1M15 40h1M40 40h2M46 40h1M48 40h2M52 40h1M61 40h1M15 41h1M30 41h1M40 41h1M63 41h1M68 41h1M33 42h1M39 42h2M16 43h1M34 43h1M40 43h2M61 43h2M65 43h1M26 44h1M68 44h1M72 44h1M54 45h1M66 45h1M57 46h1M64 46h1M72 46h1M40 47h1M62 47h1M66 47h1M22 49h1M72 49h1M23 51h1M26 53h1M71 55h1M71 57h1M49 64h1M52 70h1M36 71h1M52 71h1M21 76h1M21 78h1M24 79h1M23 80h1M16 81h1M25 81h1M27 81h1M70 81h1M15 82h1M26 82h1M13 83h1M15 83h1M14 84h2M27 84h1M14 85h2M28 85h1M14 86h2M13 87h3M29 87h1M80 87h1M14 88h2M36 88h1M52 88h1M81 88h2M1 89h1M13 89h3M32 89h1M43 89h1M47 89h1M83 89h1M1 90h1M13 90h3M35 90h1M81 90h5M87 90h1M1 91h1M15 91h1M37 91h1M82 91h1M84 91h4M1 92h1M12 92h4M83 92h5M1 93h1M12 93h1M14 93h3M82 93h1M84 93h1M86 93h2M1 94h2M13 94h1M15 94h2M81 94h1M83 94h3M1 95h1M12 95h3M16 95h1M83 95h5M11 96h2M14 96h1M16 96h1M39 96h1M80 96h1M82 96h4M87 96h1M1 97h1M7 97h1M12 97h4M81 97h7M2 98h1M8 98h1M10 98h1M12 98h1M14 98h3M79 98h5M85 98h3M1 99h2M7 99h1M9 99h4M14 99h3M73 99h1M77 99h2M80 99h3M84 99h1M86 99h2M2 100h1M4 100h1M6 100h3M11 100h6M72 100h1M74 100h1M76 100h1M78 100h10M2 101h2M5 101h8M14 101h1M16 101h1M72 101h4M77 101h5M85 101h3M2 102h1M4 102h10M15 102h1M71 102h10M83 102h5M2 103h12M35 103h1M70 103h9M80 103h1M86 103h2M2 104h10M70 104h2M75 104h1M77 104h3M83 104h1M85 104h1M87 104h1M3 105h8M13 105h1M15 105h1M70 105h4M76 105h1M78 105h1M80 105h1M86 105h2M3 106h2M6 106h3M10 106h1M12 106h2M34 106h1M70 106h1M75 106h1M79 106h1M84 106h1M87 106h1M3 107h1M5 107h1M7 107h1M9 107h1M11 107h2M14 107h1M16 107h2M70 107h1M72 107h1M80 107h1M69 108h2M72 108h2M75 108h5M81 108h6" />
<path stroke="#343c48" d="M41 0h1M44 0h1M46 0h1M36 1h1M42 1h1M47 1h1M33 2h1M34 3h1M38 3h1M42 3h1M36 4h1M55 5h1M58 5h1M24 6h2M35 6h1M66 7h1M68 8h1M18 10h1M22 10h1M28 10h1M19 12h1M13 15h1M13 20h1M21 43h1M72 43h1M49 44h1M32 45h1M15 81h1M14 82h1M0 89h1M81 89h1M16 91h1M16 92h1M49 98h1M45 106h1" />
<path stroke="#404064" d="M45 0h1M47 0h1M53 1h1M45 4h1M43 5h1M38 6h1M47 6h1M36 8h1M47 11h1M40 13h1M48 13h1M48 15h1M42 16h1M56 36h1M64 38h1M65 51h1M62 52h1M64 52h1M70 68h1M81 87h1M87 89h1M47 95h1M44 97h1M46 97h3M47 98h1M37 99h1M45 99h1M42 102h1M45 103h1M42 104h4M42 107h1" />
<path stroke="#303030" d="M34 1h2M37 1h2M44 1h1M31 2h2M34 2h3M52 2h4M30 3h4M35 3h1M40 3h1M45 3h1M48 3h4M54 3h3M58 3h1M30 4h6M53 4h2M60 4h1M26 5h3M31 5h5M37 5h1M47 5h2M50 5h5M57 5h1M60 5h4M23 6h1M29 6h2M33 6h1M52 6h2M59 6h4M26 7h2M29 7h2M32 7h3M49 7h2M52 7h1M54 7h2M62 7h2M26 8h2M29 8h4M51 8h2M65 8h1M18 9h1M25 9h6M34 9h1M37 9h2M49 9h2M53 9h1M55 9h1M65 9h2M68 9h1M16 10h2M26 10h2M29 10h7M40 10h2M47 10h1M49 10h1M52 10h2M67 10h1M69 10h1M15 11h2M18 11h1M24 11h1M30 11h2M33 11h5M49 11h3M53 11h1M55 11h1M62 11h1M66 11h1M69 11h2M16 12h1M18 12h1M20 12h1M32 12h2M40 12h1M47 12h3M51 12h1M58 12h1M69 12h3M13 13h3M18 13h2M33 13h1M35 13h1M43 13h1M49 13h1M51 13h1M53 13h4M71 13h1M73 13h1M13 14h3M18 14h2M34 14h4M48 14h1M51 14h2M70 14h1M15 15h4M42 15h2M45 15h1M50 15h2M54 15h2M61 15h1M72 15h1M75 15h1M13 16h5M50 16h1M57 16h1M63 16h1M74 16h2M12 17h1M15 17h3M50 17h1M54 17h1M62 17h1M76 17h1M10 18h1M12 18h6M71 18h1M76 18h2M13 19h5M72 19h1M77 19h1M10 20h3M15 20h3M11 21h3M15 21h1M78 21h1M12 22h3M16 22h1M10 23h1M14 23h1M75 23h1M79 23h1M12 24h4M76 24h1M78 24h1M14 25h2M75 25h1M13 26h1M72 26h1M13 27h1M72 27h1M77 27h1M12 28h2M72 28h1M77 28h1M13 29h1M15 29h1M77 29h1M13 30h1M14 31h2M73 31h1M78 31h1M14 32h1M75 32h1M14 33h1M73 33h1M75 33h1M73 34h1M75 34h1M14 35h2M33 36h3M60 36h2M72 36h1M15 37h1M72 37h1M37 38h1M68 38h1M73 38h1M15 39h1M20 39h1M34 39h1M39 39h2M46 39h2M49 39h2M67 39h1M43 40h3M57 40h1M72 40h1M25 41h1M36 41h1M42 41h1M47 41h1M54 41h1M71 41h1M21 42h1M36 42h1M51 42h1M53 42h1M15 43h1M68 43h1M73 43h1M15 44h1M21 44h1M53 44h1M12 45h1M15 45h1M60 45h1M21 46h1M59 46h1M15 47h1M73 47h1M21 48h1M53 71h1M20 73h1M21 75h1M22 77h1M16 80h1M71 81h1M16 82h1M71 82h1M29 83h1M71 83h3M72 84h1M30 85h1M72 85h1M74 85h3M71 86h1M73 86h2M77 86h2M32 87h1M75 87h1M77 87h3M72 88h1M74 88h1M76 88h1M78 88h3M45 89h1M74 89h1M76 89h1M78 89h3M82 89h1M0 90h1M72 90h2M75 90h1M77 90h1M79 90h2M0 91h1M51 91h1M74 91h1M76 91h1M78 91h4M83 91h1M0 92h1M41 92h1M72 92h2M75 92h1M77 92h6M0 93h1M48 93h1M74 93h1M76 93h1M78 93h4M83 93h1M0 94h1M72 94h2M75 94h1M77 94h4M82 94h1M87 94h1M0 95h1M72 95h1M74 95h9M0 96h2M72 96h8M81 96h1M0 97h1M73 97h1M75 97h6M0 98h2M71 98h8M0 99h1M71 99h2M74 99h3M79 99h1M0 100h2M70 100h2M73 100h1M75 100h1M77 100h1M0 101h2M13 101h1M15 101h1M70 101h2M76 101h1M1 102h1M14 102h1M70 102h1M0 103h2M14 103h3M1 104h1M12 104h5M0 105h3M11 105h2M14 105h1M16 105h1M1 106h2M5 106h1M9 106h1M14 106h3M1 107h2M4 107h1M6 107h1M8 107h1M13 107h1M15 107h1M2 108h1M4 108h5M10 108h4M15 108h1M17 108h1M33 108h1M71 108h1M74 108h1M80 108h1M87 108h1" />
<path stroke="#525052" d="M50 1h1M52 1h1M42 2h1M48 2h2M46 4h4M22 6h1M36 6h1M39 6h1M41 6h6M48 6h2M22 7h2M36 7h5M42 7h1M21 8h3M37 8h3M46 8h3M21 9h1M23 9h1M40 9h1M44 9h4M21 10h1M19 11h1M21 11h2M29 11h1M40 11h1M42 11h1M21 12h1M44 13h1M47 13h1M33 14h1M40 14h8M38 15h4M47 15h1M40 16h1M71 32h1M70 35h1M57 36h3M24 37h1M29 37h1M34 37h1M25 38h1M63 40h1M41 41h1M48 41h2M65 41h1M42 42h1M47 42h3M27 43h1M33 43h1M48 43h1M33 44h1M61 44h2M28 45h1M35 45h1M56 45h1M62 45h1M30 46h1M51 47h1M60 47h1M67 47h1M71 47h1M22 48h1M36 48h1M67 48h1M23 50h1M14 51h1M70 51h1M72 51h1M37 52h1M55 53h1M59 53h2M70 53h1M72 53h1M76 53h1M72 60h1M73 62h1M70 63h1M49 71h1M14 83h1M12 84h2M10 85h4M9 86h1M11 86h3M8 87h1M10 87h3M8 88h2M11 88h3M83 88h1M2 89h2M5 89h1M9 89h4M84 89h3M2 90h1M4 90h1M6 90h1M8 90h2M11 90h2M86 90h1M2 91h2M5 91h1M7 91h8M2 92h3M6 92h1M8 92h4M2 93h2M5 93h7M13 93h1M85 93h1M3 94h1M5 94h1M7 94h1M9 94h4M14 94h1M86 94h1M2 95h10M15 95h1M2 96h9M13 96h1M15 96h1M70 96h1M86 96h1M2 97h5M8 97h4M16 97h1M3 98h5M9 98h1M11 98h1M13 98h1M84 98h1M3 99h4M8 99h1M13 99h1M83 99h1M85 99h1M3 100h1M5 100h1M9 100h2M4 101h1M82 101h3M3 102h1M81 102h2M79 103h1M81 103h5M35 104h1M72 104h3M76 104h1M80 104h3M84 104h1M86 104h1M34 105h1M74 105h2M77 105h1M79 105h1M81 105h5M71 106h4M76 106h3M80 106h4M85 106h2M71 107h1M73 107h7M81 107h7" />
<path stroke="#444c5c" d="M40 2h1M21 7h1M20 10h1M50 49h1M70 97h1M49 100h1M17 105h1M43 105h1M45 105h1M17 106h1M43 106h1M47 107h1" />
<path stroke="#242844" d="M56 2h1M47 3h1M29 4h1M52 4h1M61 4h1M24 5h1M49 5h1M64 5h1M26 6h1M32 6h1M64 6h1M20 7h1M28 7h1M53 7h1M56 7h1M61 7h1M67 7h1M19 8h1M34 8h1M69 8h1M17 9h1M31 9h1M51 9h1M57 9h1M64 10h1M68 10h1M70 10h1M14 11h1M54 11h1M56 11h1M14 12h1M31 12h1M34 12h1M52 12h1M54 12h1M60 12h1M37 13h1M52 13h1M62 13h1M68 13h1M75 13h1M17 14h1M50 14h1M56 14h1M67 14h1M72 14h1M11 15h1M44 15h1M73 15h1M52 16h1M66 16h1M11 17h1M14 17h1M55 17h1M68 17h1M75 17h1M72 20h1M78 20h1M9 21h1M14 21h1M17 21h1M73 21h1M78 22h1M8 23h1M16 23h1M74 23h1M10 25h1M16 25h1M14 26h1M78 26h1M15 27h1M74 28h1M15 30h1M73 30h1M73 32h1M77 32h1M14 34h1M73 35h1M64 36h1M38 37h1M20 38h1M43 39h1M10 40h1M71 40h1M21 41h1M15 42h1M17 43h1M71 43h1M20 45h1M21 47h1M22 50h1M16 83h1M75 84h1M42 95h1M46 95h1M71 96h1M39 97h1M38 98h1M43 98h1M39 99h2M42 99h1M50 99h1M37 100h2M50 100h1M37 101h3M41 101h1M49 101h2M36 102h6M48 102h2M51 102h1M39 103h2M48 103h2M39 104h1M46 104h4M39 105h3M47 105h2M39 106h4M47 106h1M39 107h2M44 107h1M46 107h1M40 108h7" />
<path stroke="#202020" d="M29 3h1M52 3h2M27 4h2M55 4h5M25 5h1M29 5h2M59 5h1M27 6h2M31 6h1M54 6h3M58 6h1M63 6h1M65 6h2M25 7h1M31 7h1M51 7h1M57 7h4M64 7h2M68 7h1M28 8h1M33 8h1M53 8h3M57 8h4M62 8h1M64 8h1M66 8h1M54 9h1M56 9h1M58 9h5M64 9h1M67 9h1M69 9h2M24 10h1M54 10h8M63 10h1M65 10h1M71 10h1M57 11h5M63 11h3M67 11h2M71 11h2M13 12h1M15 12h1M56 12h2M63 12h6M72 12h2M16 13h1M50 13h1M57 13h2M60 13h2M63 13h5M69 13h2M72 13h1M12 14h1M16 14h1M53 14h3M57 14h4M63 14h2M66 14h1M68 14h2M71 14h1M73 14h3M12 15h1M14 15h1M52 15h2M56 15h4M62 15h1M64 15h1M68 15h1M70 15h2M74 15h1M76 15h1M11 16h2M47 16h1M49 16h1M51 16h1M53 16h4M58 16h3M64 16h2M67 16h3M71 16h3M76 16h1M13 17h1M51 17h2M56 17h5M69 17h2M72 17h3M77 17h1M11 18h1M69 18h2M73 18h3M9 19h2M12 19h1M70 19h2M73 19h4M78 19h1M9 20h1M14 20h1M70 20h2M73 20h5M10 21h1M16 21h1M71 21h2M74 21h4M79 21h1M9 22h3M15 22h1M17 22h1M71 22h7M79 22h1M9 23h1M11 23h3M15 23h1M17 23h1M73 23h1M76 23h3M10 24h2M16 24h1M72 24h3M77 24h1M79 24h1M11 25h3M72 25h3M76 25h4M10 26h3M15 26h1M73 26h2M76 26h2M11 27h2M14 27h1M73 27h4M78 27h1M15 28h1M73 28h1M75 28h2M78 28h2M12 29h1M14 29h1M73 29h4M78 29h1M80 29h1M9 30h1M11 30h2M14 30h1M74 30h5M11 31h3M74 31h4M11 32h2M15 32h1M74 32h1M76 32h1M78 32h1M9 33h1M12 33h1M15 33h1M74 33h1M76 33h3M9 34h1M11 34h3M15 34h1M76 34h2M79 34h1M9 35h1M12 35h2M76 35h2M11 36h5M62 36h2M73 36h1M75 36h3M79 36h1M12 37h1M14 37h1M36 37h1M62 37h1M66 37h1M73 37h1M77 37h1M10 38h1M12 38h1M14 38h1M21 38h3M39 38h3M48 38h1M67 38h1M69 38h1M72 38h1M77 38h1M10 39h1M12 39h1M14 39h1M19 39h1M21 39h1M30 39h1M32 39h1M41 39h2M68 39h1M70 39h1M73 39h1M78 39h1M13 40h1M18 40h1M20 40h2M54 40h1M68 40h3M73 40h1M77 40h1M11 41h2M17 41h1M69 41h1M73 41h1M77 41h1M11 42h1M17 42h1M28 42h1M32 42h1M56 42h1M60 42h1M69 42h3M77 42h1M11 43h2M14 43h1M18 43h1M20 43h1M69 43h2M76 43h1M11 44h2M28 44h1M32 44h1M56 44h1M60 44h1M76 44h1M29 45h1M31 45h1M57 45h1M59 45h1M12 46h2M13 47h2M13 48h1M13 49h2M53 70h1M35 71h1M67 74h1M66 76h1M65 77h1M67 78h1M63 79h1M65 80h1M70 80h1M62 81h1M72 82h1M61 83h1M71 84h1M73 84h2M71 85h1M73 85h1M72 86h1M75 86h2M71 87h4M76 87h1M71 88h1M73 88h1M75 88h1M77 88h1M49 89h1M71 89h3M75 89h1M77 89h1M71 90h1M74 90h1M76 90h1M78 90h1M71 91h3M75 91h1M77 91h1M71 92h1M74 92h1M76 92h1M71 93h3M75 93h1M77 93h1M71 94h1M74 94h1M76 94h1M71 95h1M73 95h1M38 97h1M71 97h2M74 97h1M70 99h1M51 101h1M0 102h1M16 102h1M50 102h1M0 104h1M0 106h1M11 106h1M0 107h1M10 107h1M0 108h1M3 108h1M9 108h1M14 108h1M16 108h1M39 108h1" />
<path stroke="#101010" d="M57 6h1M61 8h1M63 8h1M63 9h1M62 10h1M66 10h1M59 12h1M61 12h2M74 12h1M59 13h1M74 13h1M61 14h2M65 14h1M60 15h1M63 15h1M65 15h2M69 15h1M61 16h2M70 16h1M61 17h1M71 17h1M72 18h1M8 22h1M72 23h1M8 24h2M75 24h1M8 25h2M8 26h2M75 26h1M79 26h1M8 27h3M79 27h1M9 28h3M14 28h1M9 29h3M79 29h1M10 30h1M79 30h1M9 31h2M79 31h1M9 32h2M13 32h1M79 32h1M10 33h2M13 33h1M79 33h1M10 34h1M74 34h1M78 34h1M10 35h2M74 35h2M78 35h2M74 36h1M78 36h1M10 37h2M13 37h1M64 37h2M74 37h3M78 37h1M11 38h1M13 38h1M38 38h1M74 38h3M78 38h1M11 39h1M13 39h1M74 39h4M11 40h2M14 40h1M74 40h3M13 41h1M18 41h2M72 41h1M74 41h3M12 42h3M16 42h1M18 42h2M72 42h5M13 43h1M30 43h2M58 43h2M74 43h2M13 44h2M20 44h1M30 44h1M58 44h1M74 44h2M13 45h2M74 45h2M14 46h1M74 46h2M74 47h1M14 48h1M34 70h1M1 108h1M38 108h1M47 108h1" />
<path stroke="#505074" d="M41 7h1M66 39h1M22 40h1M67 46h1M49 47h1M16 64h1M11 84h1M5 87h1M2 88h1M70 98h1M47 99h1M44 106h1" />
<path stroke="#481470" d="M49 8h1M41 9h1M44 11h1M39 14h1" />
<path stroke="#200400" d="M56 8h1M55 12h1M67 15h1M48 16h1M10 36h1M63 37h1M67 37h1M33 39h1M19 40h1M14 41h1M35 70h1" />
<path stroke="#626562" d="M22 9h1M31 36h1M23 37h1M25 37h4M30 37h2M33 37h1M58 37h1M49 38h1M52 38h1M23 39h1M55 43h1M41 44h1M54 44h2M34 45h1M40 45h1M49 45h1M61 45h1M39 47h1M34 53h2M58 53h1M68 78h1M68 79h1M68 80h2M69 82h2M69 83h2M70 84h1M69 85h2M8 86h1M10 86h1M70 86h1M6 87h2M9 87h1M70 87h1M3 88h5M10 88h1M70 88h1M4 89h1M6 89h3M3 90h1M5 90h1M7 90h1M10 90h1M70 90h1M4 91h1M6 91h1M70 91h1M5 92h1M7 92h1M70 92h1M4 93h1M4 94h1M6 94h1M8 94h1M70 95h1M51 103h1M52 104h1M34 107h1" />
<path stroke="#081858" d="M71 9h1M72 10h1M73 11h1M8 28h1M80 28h1M9 36h1M79 37h1M10 41h1" />
<path stroke="#8c4c40" d="M26 11h2M23 12h2M30 12h1M22 13h1M31 13h1M21 14h1M19 16h1M39 16h1M44 17h3M18 18h2M47 18h1M65 18h1M52 19h1M18 24h1M17 26h1M16 28h2M70 29h1M59 30h1M16 31h1M16 32h2M60 32h1M70 32h1M16 33h1M62 33h1M64 33h1M70 33h1M16 34h1M20 34h1M58 34h2M61 34h1M70 34h1M51 35h1M56 35h2M63 35h1M65 35h1M16 36h2M19 36h1M65 36h1M69 36h1M16 37h1M69 37h1M16 38h1M19 38h1M28 38h1M18 39h1M25 39h1M45 39h1M16 40h2M22 41h1M67 42h1M16 44h1M70 44h1M16 45h1M23 45h1M27 45h1M70 45h1M16 46h1M20 46h1M22 46h1M24 46h1M26 46h2M29 46h1M32 46h1M38 46h1M70 46h1M20 47h1M22 47h1M25 47h1M27 47h2M31 47h1M36 47h1M16 48h1M18 48h1M26 48h3M30 48h2M33 48h1M37 48h2M57 48h1M59 48h1M63 48h1M68 48h1M70 48h1M28 49h1M30 49h1M33 49h5M49 49h1M53 49h1M55 49h1M57 49h1M60 49h2M64 49h1M74 49h1M16 50h1M33 50h2M36 50h1M51 50h1M53 50h3M59 50h2M62 50h3M68 50h2M15 51h1M60 51h1M63 51h1M66 51h1M76 51h1M15 52h1M19 52h1M70 52h1M76 52h1M13 53h1M16 53h1M20 53h1M67 53h1M12 54h5M19 54h1M66 54h1M74 54h2M14 55h2M17 55h1M21 55h1M50 55h1M66 55h1M68 55h1M72 55h1M74 55h2M14 56h2M17 56h1M19 56h2M50 56h1M72 56h1M74 56h2M14 57h2M17 57h1M21 57h1M72 57h1M74 57h2M13 58h1M15 58h2M18 58h4M50 58h1M72 58h1M74 58h1M15 59h2M22 59h1M66 59h2M69 59h1M14 60h2M17 60h4M22 60h1M49 60h1M17 61h1M19 61h3M23 61h1M51 61h1M66 61h4M15 62h1M17 62h3M21 62h1M46 62h1M16 63h1M21 63h1M44 63h1M66 63h3M17 64h4M23 64h1M52 64h1M19 65h1M21 65h1M39 65h6M64 65h1M67 65h1M18 66h3M24 66h1M32 66h1M18 67h1M20 67h2M32 67h1M54 67h1M56 67h1M64 67h1M66 67h1M19 68h2M24 68h1M40 68h1M44 68h1M46 68h1M49 68h1M58 68h1M61 68h1M63 68h1M21 69h2M33 69h1M36 69h1M39 69h3M43 69h2M46 69h1M48 69h1M52 69h2M60 69h1M62 69h1M32 70h1M60 70h1M62 70h1M21 71h1M33 71h1M58 71h1M25 72h1M39 72h1M45 72h1M47 72h1M61 72h1M23 73h1M61 73h1M22 74h2M25 74h1M61 74h1M23 75h1M25 75h1M24 76h1M26 76h1M26 77h1M42 77h1M47 77h1M26 78h1M28 78h1M46 78h1M49 78h1M29 80h1M52 81h1M31 82h1M51 83h1M34 85h1M34 86h1M52 86h1M35 87h1M47 87h1M51 87h1M40 88h1M44 88h1M48 88h2" />
<path stroke="#944838" d="M28 11h1M20 14h1M50 18h3M55 19h5M61 19h3M65 19h2M56 20h1M58 20h3M62 20h4M58 21h2M62 21h2M65 21h2M56 22h2M59 22h1M61 22h2M64 22h3M56 23h1M58 23h4M63 23h3M67 23h1M56 24h2M59 24h1M62 24h4M67 24h1M58 25h1M61 25h1M64 25h3M58 26h1M60 26h7M60 27h1M62 27h4M67 27h1M58 28h2M61 28h1M64 28h2M60 29h1M62 29h1M65 29h1M57 30h2M60 30h1M62 30h1M64 30h1M60 31h4M63 32h1M65 32h1M63 34h1M76 47h1M12 50h1M50 50h1M76 50h1M56 51h1M67 52h1M64 53h1M66 53h1M65 54h1M67 54h1M65 55h1M52 56h1M65 56h2M37 57h1M52 57h1M64 57h3M53 58h1M64 58h2M75 58h1M35 59h2M52 59h1M54 59h1M63 59h3M73 59h1M75 59h1M41 60h1M54 60h1M73 60h1M52 61h1M64 61h2M73 61h2M37 62h1M45 66h1M49 66h1M43 67h1M47 67h2M42 69h1M64 70h1M56 71h1M62 71h1M55 72h1M44 73h1M46 73h1M49 73h4M63 73h1M46 74h5M57 74h1M62 74h1M57 75h1M60 76h2M58 77h1M40 78h1M59 78h1M57 79h1M56 80h1M55 81h1M57 81h1M56 82h1M54 83h2M53 84h1M53 86h1" />
<path stroke="#a06460" d="M25 12h1M23 13h1M30 13h1M32 14h1M21 15h1M20 16h2M20 18h1M45 18h2M48 18h1M21 19h1M19 20h3M21 21h1M20 22h1M20 23h1M19 24h1M19 25h2M18 26h2M20 27h1M18 28h3M20 29h1M18 30h3M20 31h1M22 31h1M18 32h2M21 32h1M19 33h1M17 34h1M21 34h3M50 34h2M53 34h1M19 35h1M29 35h1M48 35h1M18 36h1M21 36h2M19 37h1M18 38h1M50 38h1M17 39h1M19 44h1M34 44h1M17 46h2M46 46h2M24 47h1M17 48h1M24 48h1M18 49h1M20 49h1M25 49h1M27 49h1M51 49h1M17 50h1M28 50h1M31 50h1M38 50h1M47 50h1M17 51h1M47 51h1M16 52h1M18 52h1M27 53h1M48 53h1M17 54h1M22 54h1M12 55h1M18 55h1M48 55h1M13 56h1M16 56h1M21 56h1M23 56h1M13 57h1M17 59h1M35 61h1M20 62h1M37 63h1M36 65h3M23 66h1M35 66h1M30 67h1M53 67h1M34 68h1M56 68h1M23 69h1M25 70h1M28 70h1M30 70h1M43 70h1M48 70h1M57 70h1M41 71h1M44 71h1M48 71h1M29 72h1M41 72h1M34 73h1M26 74h2M27 75h1M35 75h1M53 75h1M37 76h1M45 76h1M50 76h2M35 77h1M38 77h1M31 78h1M36 79h1M45 79h1M31 80h1M34 80h1M44 80h1M49 82h1M33 84h1M47 84h1M49 84h1M41 85h1M49 85h1M36 86h1M38 86h2M41 86h1M43 86h1M45 86h3M40 87h2M43 87h2M46 87h1" />
<path stroke="#b87050" d="M26 12h2M29 12h1M24 13h1M23 14h1M22 15h1M24 15h1M22 16h2M22 17h1M21 18h2M44 18h1M46 19h4M47 20h4M22 21h1M48 21h3M21 22h1M47 22h4M53 22h1M47 23h5M21 24h1M46 24h5M53 24h1M47 25h6M20 26h2M47 26h4M48 27h6M21 28h2M25 28h1M44 28h1M46 28h1M49 28h1M52 28h1M44 29h1M50 29h4M21 30h2M49 30h1M51 30h2M25 31h1M23 32h2M47 32h1M49 32h1M51 32h3M24 33h1M46 33h1M49 33h4M54 33h1M24 34h1M28 34h1M32 34h1M35 34h1M41 34h6M49 34h1M22 35h1M24 35h1M39 35h1M41 35h7M41 36h2M45 36h2M21 37h1M41 37h5M44 38h1M41 46h1M41 47h1M41 48h1M47 48h1M24 49h1M40 49h1M24 50h2M40 50h2M24 51h1M26 51h1M29 51h2M32 51h1M34 51h2M39 51h3M46 51h1M50 51h1M54 51h1M22 52h2M26 52h5M32 52h3M38 52h1M40 52h2M50 52h1M56 52h2M23 53h3M39 53h3M51 53h1M53 53h2M23 54h3M38 54h3M47 54h1M53 54h1M55 54h1M61 54h2M24 55h2M36 55h2M53 55h2M61 55h2M24 56h2M36 56h1M39 56h1M54 56h2M61 56h1M24 57h1M35 57h1M48 57h1M54 57h3M58 57h1M61 57h1M25 58h1M35 58h1M39 58h2M48 58h1M55 58h2M58 58h3M26 59h2M34 59h1M53 59h1M55 59h6M34 60h1M43 60h3M56 60h4M25 61h2M57 61h3M25 62h2M34 62h1M36 62h1M56 62h2M62 62h1M25 63h1M33 63h2M54 63h1M57 63h4M25 64h2M28 64h1M33 64h2M36 64h1M53 64h2M57 64h1M25 65h3M30 65h3M34 65h1M54 65h1M58 65h1M60 65h1M25 66h3M29 66h2M36 66h1M25 67h5M36 67h5M25 68h3M36 68h1M26 69h1M28 69h1M26 70h1M27 71h2M26 72h2M27 73h2M28 74h1M30 74h4M43 74h1M30 75h2M33 75h2M28 76h6M33 77h1M37 77h1M40 77h1M33 78h2M36 78h1M38 78h1M44 78h1M48 78h1M50 78h1M34 79h2M40 79h1M47 79h1M49 79h3M35 80h1M37 80h1M39 80h1M41 80h1M49 80h2M35 81h3M46 81h1M49 81h3M34 82h2M37 82h2M50 82h1M35 83h4M48 83h2M36 84h2M39 84h2M48 84h1M37 85h2M42 86h1" />
<path stroke="#b86c58" d="M28 12h1M25 13h2M34 15h1M37 16h1M24 17h1M39 17h1M41 17h1M24 18h1M43 18h1M22 23h1M22 26h1M22 27h1M23 28h1M47 28h1M50 28h2M49 29h1M23 30h1M45 30h1M47 30h2M50 30h1M24 31h1M50 31h3M50 32h1M47 33h2M26 34h1M36 34h2M47 34h1M46 43h1M45 45h1M42 46h1M42 47h1M41 49h2M46 50h1M38 51h1M42 51h1M38 53h1M41 54h1M46 54h1M40 55h1M26 56h1M40 56h1M47 56h2M25 57h2M38 57h1M34 58h1M37 58h2M41 58h1M47 58h1M37 59h2M41 59h3M46 59h1M26 60h2M27 61h1M27 62h1M33 62h1M58 62h1M26 63h2M29 63h1M32 63h1M36 63h1M27 64h1M29 64h3M29 65h1M29 73h1M38 73h1M40 74h3M29 75h1M39 78h1M41 78h2M47 78h1M38 79h2M42 79h1M44 79h1M46 79h1M48 79h1M38 80h1M43 80h1M47 80h2M40 81h3M44 81h1M48 81h1M39 82h2M47 82h2M40 83h1M44 83h1M39 85h1M47 85h1" />
<path stroke="#401408" d="M53 12h1M49 14h1M63 17h1M15 38h1M66 38h1M22 39h1M31 39h1M56 40h1M70 41h1M36 70h1M67 76h1M66 77h1M64 78h1M66 78h1M25 79h1M64 79h3M62 80h3M66 80h1M61 81h1M63 81h1M65 81h1M60 82h2M63 82h1M59 83h2M62 83h2M58 84h5M57 85h2M60 85h1M57 86h2M55 87h2M58 87h1M53 88h4M48 89h1M50 89h3M54 89h2M39 90h1M41 90h1M44 90h4M49 90h1M42 91h1M44 91h3M43 93h1M45 93h1" />
<path stroke="#68502c" d="M21 13h1M18 21h1M18 23h1M17 25h1M16 27h1M71 31h1M71 34h1M16 35h1M35 35h1M32 36h1M49 37h1M27 38h1M34 38h1M58 38h1M27 39h1M35 39h1M59 39h1M62 39h1M25 40h1M37 40h1M50 40h1M29 41h1M32 41h1M41 42h1M49 43h1M37 44h1M67 44h1M71 44h1M38 45h1M50 45h1M33 46h1M50 46h1M66 46h1M71 46h1M30 47h1M32 47h1M35 47h1M52 47h1M54 47h1M64 47h1M34 48h1M54 48h1M56 48h1M58 48h1M60 48h1M65 48h1M15 49h1M58 49h1M63 49h1M37 50h1M61 53h1M69 57h1M40 61h1M71 62h1M41 63h1M47 63h1M40 64h1M43 64h1M45 65h1M70 66h1M37 70h1M40 72h1M44 72h1M21 73h1M24 77h1M63 77h1M21 79h1M26 79h1M28 80h1M23 82h2M30 83h1M26 84h1M27 86h1M33 86h1M30 87h1" />
<path stroke="#c4806c" d="M27 13h3M24 14h4M29 14h1M31 14h1M27 15h1M33 15h1M24 16h2M36 16h1M25 17h1M27 17h1M38 17h1M40 17h1M23 18h1M25 18h1M27 18h1M40 18h3M24 19h2M42 19h4M23 20h3M42 20h1M23 21h3M44 21h1M22 22h1M24 22h2M42 22h1M23 23h3M40 23h1M22 24h3M42 24h2M45 24h1M23 25h2M44 25h1M46 25h1M23 26h2M40 26h1M42 26h1M44 26h1M23 27h5M29 27h1M41 27h1M43 27h1M24 28h1M40 28h1M42 28h1M45 28h1M24 29h2M41 29h1M43 29h1M45 29h1M47 29h1M24 30h3M35 30h1M42 30h1M26 31h2M29 31h1M41 31h4M46 31h2M49 31h1M25 32h2M28 32h1M41 32h1M43 32h4M48 32h1M26 33h10M37 33h6M38 34h1M40 34h1M45 42h1M42 43h1M45 43h1M43 44h3M42 45h3M43 46h2M43 47h3M42 48h4M45 49h1M39 50h1M42 50h1M44 50h2M25 51h1M33 51h1M45 51h1M42 52h5M37 53h1M42 53h1M44 53h3M30 54h1M36 54h1M42 54h1M44 54h2M41 55h2M45 55h3M41 56h1M44 56h1M46 56h1M45 57h1M47 57h1M42 58h1M44 58h1M46 58h1M44 59h2M32 62h1M35 62h1M30 63h1M35 63h1M35 64h1M28 65h1M41 79h1M43 79h1M40 80h1M42 80h1M45 80h2M38 81h1M43 81h1M45 81h1M47 81h1M41 82h3M45 82h2M39 83h1M41 83h3M46 83h2M41 84h2M44 84h3M42 85h1M44 85h1M46 85h1" />
<path stroke="#a85c4c" d="M22 14h1M38 16h1M42 17h2M49 18h1M20 19h1M51 19h1M53 19h1M51 21h2M19 23h1M54 28h1M56 28h1M54 30h1M53 31h5M54 32h1M21 33h2M55 33h2M19 34h1M29 34h1M55 34h1M17 35h1M26 35h1M20 36h1M46 37h1M18 45h2M18 47h2M40 48h1M19 49h1M18 50h1M21 50h1M27 50h1M32 50h1M19 51h2M28 51h1M51 51h1M12 52h1M20 52h1M12 53h1M17 53h1M19 53h1M47 53h1M20 54h2M51 54h1M39 55h1M22 56h1M38 56h1M49 56h1M22 57h2M39 57h1M62 57h1M14 58h1M23 58h1M13 59h2M24 59h2M39 59h2M47 59h2M13 60h1M21 60h1M24 60h2M37 60h1M42 60h1M46 60h1M61 60h1M14 61h1M44 61h1M46 61h1M48 61h1M60 61h1M14 62h1M23 62h1M63 62h1M53 63h1M56 63h1M22 64h1M24 64h1M32 64h1M37 64h1M58 64h1M62 64h2M33 65h1M55 65h1M22 66h1M34 66h1M38 66h2M41 66h1M43 66h1M62 66h1M34 67h1M41 67h2M50 67h1M57 67h1M59 67h1M22 68h1M30 68h1M33 68h1M35 68h1M38 68h1M43 68h1M47 68h1M52 68h1M54 68h1M62 68h1M30 69h1M55 69h1M22 70h1M41 70h1M23 71h1M26 71h1M30 71h1M32 71h1M23 72h1M33 72h2M25 73h1M33 73h1M35 73h1M37 73h1M40 73h1M42 73h1M35 74h5M44 74h1M55 74h1M28 75h1M32 75h1M36 75h1M39 75h1M41 75h1M43 75h1M46 75h1M50 75h1M35 76h1M39 76h1M43 76h2M47 76h2M54 76h1M43 77h1M49 77h2M53 77h1M51 78h1M52 79h1M54 79h1M33 80h1M51 80h1M50 85h1M49 86h1" />
<path stroke="#d49470" d="M28 14h1M26 15h1M28 15h2M31 15h2M27 16h2M26 17h1M28 17h1M30 17h1M32 17h1M26 18h1M28 18h2M38 18h1M26 19h1M28 19h1M38 19h4M27 20h2M40 20h2M26 21h1M29 21h1M39 21h4M27 22h1M39 22h3M26 23h2M41 23h4M26 24h1M39 24h3M26 25h2M37 25h6M27 26h1M32 26h1M39 26h1M43 26h1M30 27h1M33 27h2M36 27h3M40 27h1M26 28h2M34 28h3M38 28h1M28 29h1M36 29h2M39 29h1M28 30h4M38 30h2M28 31h1M29 32h1M31 32h1M33 32h1M36 32h3M40 32h1M42 32h1M36 33h1M44 42h1M43 51h1M28 54h1M32 54h2M27 55h1M29 55h6M44 55h1M28 56h1M30 56h2M34 56h1M29 57h1M31 57h2M30 58h2M43 58h1M32 60h1" />
<path stroke="#d49480" d="M30 14h1M30 15h1M31 16h5M29 17h1M35 17h2M30 18h1M37 18h1M39 18h1M27 19h1M29 19h1M26 20h1M29 20h1M38 20h2M27 21h2M37 21h2M26 22h1M28 22h3M37 22h1M38 23h2M27 24h2M30 24h1M38 24h1M25 25h1M28 25h2M36 25h1M26 26h1M28 26h1M31 26h1M33 26h3M37 26h2M31 27h1M35 27h1M39 27h1M28 28h1M31 28h1M33 28h1M27 29h1M29 29h1M31 29h3M40 29h1M32 30h3M36 30h2M30 31h1M32 31h7M40 31h1M30 32h1M32 32h1M35 32h1M39 32h1M43 42h1M43 43h2M43 49h2M43 50h1M43 53h1M43 54h1M43 55h1M42 56h1M42 57h2" />
<path stroke="#744428" d="M19 15h1M67 18h1M18 19h1M18 20h1M68 20h1M69 24h1M67 25h1M70 25h1M69 26h1M71 26h1M68 28h1M71 28h1M16 30h1M68 30h1M69 31h1M64 32h1M66 32h2M69 32h1M65 33h1M67 33h1M64 34h1M66 34h2M69 34h1M32 35h2M53 35h2M59 35h1M64 35h1M68 35h1M50 36h2M66 36h3M68 37h1M70 37h1M29 38h2M32 38h1M36 38h1M70 38h1M16 39h1M26 39h1M36 39h2M51 39h1M60 39h1M38 40h1M51 40h1M28 41h1M39 41h1M46 41h1M67 41h1M23 42h1M26 42h1M65 42h2M23 43h3M67 43h1M24 44h1M36 44h1M52 44h1M24 45h1M39 45h1M33 47h2M55 47h1M58 47h1M69 47h1M49 48h1M61 48h2M71 48h1M31 49h1M56 49h1M62 49h1M65 49h1M68 49h3M67 50h1M70 50h2M67 51h2M13 52h1M69 52h1M68 53h1M68 54h2M69 55h2M67 56h4M73 56h1M51 57h1M67 57h2M70 57h1M66 58h1M68 58h2M73 58h1M70 59h2M68 60h4M72 61h1M38 62h1M48 62h1M50 62h1M67 62h4M45 63h1M52 63h1M38 64h1M42 64h1M45 64h3M65 64h1M67 64h2M46 65h3M70 65h2M67 66h3M65 67h1M67 67h1M67 68h2M37 69h1M66 69h2M66 70h1M68 70h1M64 71h2M67 71h1M37 72h2M48 72h1M65 72h2M65 73h1M63 74h3M62 75h3M60 77h2M25 78h1M60 78h1M59 79h1M21 80h1M25 80h1M28 81h1M58 81h1M57 82h1M24 83h1M56 83h1M31 84h1M56 84h1M54 86h1M53 87h1" />
<path stroke="#8c6c40" d="M20 15h1M19 17h2M18 25h1M18 29h1M17 31h1M19 31h1M21 31h1M20 32h1M17 33h2M20 33h1M33 34h1M52 34h1M54 34h1M56 34h2M20 35h1M25 35h1M28 35h1M18 37h1M20 37h1M47 43h1M18 44h1M19 46h1M19 48h2M25 48h1M21 49h1M23 49h1M19 50h2M26 50h1M30 50h1M48 50h1M48 51h1M57 51h1M47 52h1M49 52h1M21 53h1M49 53h1M50 54h1M19 55h2M38 55h1M49 55h1M20 57h1M21 59h1M49 59h1M36 60h1M47 60h2M22 61h1M45 61h1M45 62h1M47 62h1M22 63h1M21 64h1M22 65h3M21 66h1M33 66h1M40 66h1M44 66h1M22 67h1M24 67h1M33 67h1M49 67h1M51 67h1M55 67h1M58 67h1M62 67h1M21 68h1M23 68h1M29 68h1M31 68h1M42 68h1M48 68h1M53 68h1M27 69h1M29 69h1M31 69h2M54 69h1M56 69h1M59 69h1M21 70h1M23 70h1M44 70h1M58 70h1M24 71h2M29 71h1M31 71h1M59 71h1M26 73h1M32 73h1M59 73h1M24 74h1M54 74h1M56 74h1M24 75h1M26 75h1M51 75h1M38 76h1M49 76h1M53 76h1M55 76h1M39 77h1M41 77h1M44 77h1M48 77h1M51 77h1M29 78h1M53 78h1M31 79h1M53 79h1M52 80h1M31 81h1M34 81h1M33 82h1M34 84h1M52 84h1M35 86h1M48 86h1M51 86h1M42 87h1M45 87h1M48 87h1" />
<path stroke="#a08058" d="M23 15h1M25 15h1M21 17h1M23 17h1M22 19h2M22 20h1M46 20h1M20 21h1M23 22h1M46 22h1M21 23h1M20 24h1M21 25h2M46 26h1M19 27h1M21 27h1M48 28h1M21 29h3M23 31h1M48 31h1M22 32h1M23 33h1M25 33h1M45 33h1M25 34h1M27 34h1M30 34h1M48 34h1M23 35h1M38 35h1M40 35h1M40 36h1M43 36h1M46 42h1M46 44h1M41 45h1M46 45h1M46 47h1M23 48h1M46 48h1M26 49h1M46 49h1M21 51h1M39 52h1M37 54h1M35 65h1M28 66h1M31 66h1M37 66h1M35 67h1M45 71h1M28 72h1M30 73h1M29 74h1M34 74h1M34 76h1M30 77h1M32 77h1M34 77h1M35 78h1M45 78h1M33 79h1M37 79h1M32 80h1M36 80h1M39 81h1M36 82h1M35 84h1M38 84h1M40 85h1M43 85h1M48 85h1M37 86h1M40 86h1M44 86h1M39 87h1" />
<path stroke="#a0384c" d="M35 15h1M67 40h1M48 44h1M76 46h1M12 51h1M57 53h1M15 61h1M36 73h1M41 73h1M43 73h1M45 74h1M38 75h1M42 75h1" />
<path stroke="#783828" d="M18 16h1M41 16h1M47 17h1M58 18h1M60 18h2M66 18h1M68 19h1M68 21h2M18 22h1M69 22h1M69 23h2M70 24h1M71 25h1M70 27h2M71 29h1M71 30h2M67 31h2M70 31h1M72 32h1M68 33h2M71 33h1M68 34h1M72 34h1M66 35h1M69 35h1M71 35h1M70 36h2M48 37h1M50 37h1M71 37h1M31 38h1M35 38h1M54 38h1M59 38h1M61 38h1M52 39h2M61 39h1M63 39h1M65 39h1M71 39h1M30 40h1M62 40h1M64 40h3M27 41h1M31 41h1M51 41h1M60 41h1M64 41h1M66 41h1M27 42h1M66 43h1M66 44h1M37 45h1M67 45h1M71 45h1M31 46h1M34 46h1M37 46h1M48 46h1M54 46h3M61 46h1M29 47h1M53 47h1M56 47h2M59 47h1M61 47h1M63 47h1M65 47h1M35 48h1M52 48h1M55 48h1M64 48h1M66 48h1M72 48h1M75 48h1M32 49h1M39 49h1M52 49h1M71 49h1M15 50h1M72 50h2M71 51h1M73 51h2M14 52h1M71 52h3M75 52h1M14 53h1M69 53h1M71 53h1M74 53h1M70 54h3M67 55h1M71 56h1M70 58h2M68 59h1M72 59h1M67 60h1M39 61h1M70 61h2M51 62h1M72 62h1M40 63h1M42 63h1M49 63h1M51 63h1M69 63h1M71 63h2M41 64h1M44 64h1M48 64h1M51 64h1M69 64h3M49 65h1M68 65h2M69 67h1M69 68h1M68 69h1M55 70h1M67 70h1M66 71h1M49 72h1M64 72h1M67 72h1M64 73h1M66 73h1M65 75h1M62 76h3M62 78h1M60 79h1M27 80h1M27 82h1M29 82h1M25 84h1M26 85h2M29 85h1M30 86h1M32 88h1M51 88h1M33 89h1M33 90h1" />
<path stroke="#cc8060" d="M26 16h1M43 20h3M45 21h3M43 22h3M45 23h2M44 24h1M43 25h1M45 25h1M41 26h1M45 26h1M28 27h1M42 27h1M44 27h4M39 28h1M41 28h1M43 28h1M26 29h1M42 29h1M46 29h1M48 29h1M27 30h1M40 30h2M43 30h2M46 30h1M45 31h1M27 32h1M43 33h2M39 34h1M42 44h1M31 52h1M36 53h1M26 54h2M29 54h1M31 54h1M34 54h2M54 54h1M56 54h5M26 55h1M28 55h1M35 55h1M55 55h6M27 56h1M29 56h1M33 56h1M35 56h1M45 56h1M57 56h4M27 57h2M30 57h1M33 57h2M40 57h2M46 57h1M57 57h1M59 57h2M26 58h3M33 58h1M45 58h1M57 58h1M28 59h6M28 60h3M33 60h1M28 61h6M56 61h1M28 62h4M28 63h1M31 63h1" />
<path stroke="#e0a880" d="M29 16h2M31 17h1M33 17h2M31 18h1M34 18h3M30 19h1M32 19h1M35 19h3M30 20h1M32 20h3M36 20h2M30 21h2M35 21h2M32 22h1M34 22h1M38 22h1M28 23h7M36 23h2M29 24h1M31 24h1M33 24h1M35 24h3M31 25h4M29 26h2M36 26h1M29 28h1M32 28h1M30 29h1M35 29h1M34 32h1" />
<path stroke="#7c542c" d="M18 17h1M64 19h1M67 22h1M66 27h1M69 28h1M63 29h1M66 29h1M65 30h1M31 35h1M50 35h1M52 35h1M55 35h1M49 36h1M22 44h1M22 45h1M25 46h1M69 46h1M69 48h1M29 49h1M68 52h1M36 58h1M66 60h1M52 62h1M43 63h1M50 65h1M65 66h1M39 70h1M65 70h1M37 71h1M42 72h1M63 72h1M58 78h1M58 79h1M58 80h1M29 81h1M56 81h1M55 82h1M54 84h2M52 87h1M37 88h1" />
<path stroke="#b8a078" d="M37 17h1M25 24h1" />
<path stroke="#541c10" d="M64 17h1M69 19h1M29 39h1M57 39h1M72 39h1M42 40h1M55 40h1M58 40h3M35 41h1M53 41h1M55 41h3M62 41h1M37 42h1M52 42h1M54 42h2M63 42h1M19 43h1M52 43h1M54 43h1M63 44h1M73 44h1M21 45h1M73 45h1M15 46h1M12 47h1M73 54h1M40 62h1M49 62h1M54 71h1M20 76h1M20 78h1M22 78h1M25 83h1M30 84h1M36 89h2M40 90h1M43 90h1M48 90h1M43 91h1M48 91h1M50 91h1M52 91h1M45 92h1M49 92h1M41 93h1M44 93h1M46 93h2M49 93h1M43 94h1" />
<path stroke="#6c2c1c" d="M65 17h2M69 20h1M71 23h1M71 24h1M72 29h1M72 31h1M72 33h1M72 35h1M57 38h1M63 38h1M28 40h2M31 40h1M47 40h1M26 41h1M33 41h1M50 41h1M34 42h1M62 42h1M68 42h1M35 43h2M38 43h1M50 43h1M63 43h1M39 44h1M25 45h1M51 45h2M72 45h1M35 46h2M60 46h1M62 46h2M65 46h1M72 47h1M75 47h1M51 48h1M53 48h1M73 48h2M67 49h1M73 49h1M75 49h1M13 50h1M66 50h1M75 50h1M13 51h1M74 52h1M73 53h1M73 55h1M39 64h1M50 64h1M68 67h1M69 69h1M40 70h1M68 71h1M36 72h1M52 72h1M67 73h1M66 74h1M62 77h1M64 77h1M23 79h1M61 79h1M24 80h1M59 80h1M22 81h1M24 81h1M26 81h1M25 82h1M58 82h1M26 83h1M28 84h1M28 86h2M31 87h1M30 88h2M34 88h1M36 90h1M35 91h2M38 92h2M42 92h1M39 93h1M39 94h1" />
<path stroke="#701020" d="M67 17h1M70 21h1M68 45h1" />
<path stroke="#ecbc94" d="M32 18h1M33 19h1M32 21h1M34 21h1M35 22h1" />
<path stroke="#fc907c" d="M33 18h1M31 20h1M33 21h1M31 22h1M36 22h1M30 25h1M35 25h1M32 27h1M30 28h1M34 29h1M31 31h1M32 56h1M31 60h1" />
<path stroke="#803828" d="M53 18h5M62 18h3M60 19h1M67 19h1M66 20h2M67 21h1M68 22h1M66 23h1M68 23h1M68 24h1M68 25h2M67 26h2M70 26h1M68 27h2M66 28h2M70 28h1M67 29h3M66 30h2M69 30h1M65 31h2M68 32h1M66 33h1M65 34h1M67 35h1M12 48h1M76 49h1M74 50h1M69 51h1M73 57h1M67 58h1M74 59h1M64 69h1M35 72h1M51 72h1M53 72h2M54 85h2" />
<path stroke="#882034" d="M59 18h1M70 47h1M76 48h1M12 49h1M75 53h1M74 60h1M50 72h1M47 73h1" />
<path stroke="#603418" d="M68 18h1M70 22h1M17 24h1M36 36h1M52 36h1M33 38h1M55 38h1M55 39h1M32 40h1M36 40h1M53 40h1M37 41h2M43 41h1M59 41h1M24 42h1M35 42h1M38 42h1M50 42h1M64 42h1M26 43h1M37 43h1M39 43h1M51 43h1M38 44h1M40 44h1M50 44h1M64 44h2M26 45h1M36 45h1M48 45h1M64 45h2M76 45h1M51 46h3M73 46h1M48 47h1M15 48h1M14 50h1M39 62h1M38 63h2M50 63h1M70 67h1M33 70h1M38 70h1M66 75h1M23 76h1M65 76h1M21 77h1M23 78h1M63 78h1M20 79h1M22 79h1M62 79h1M22 80h1M60 80h2M23 81h1M60 81h1M28 82h1M59 82h1M27 83h2M58 83h1M29 84h1M57 84h1M31 85h2M56 85h1M31 86h2M55 86h1M33 87h1M54 87h1M34 89h2M42 89h1M44 89h1M34 90h1M37 90h2M40 91h1M36 92h2M40 92h1M48 92h1M38 93h1M42 93h1M40 94h2M44 94h1" />
<path stroke="#7c6848" d="M19 19h1M19 22h1M17 27h1M17 30h1M18 34h1M18 35h1M58 35h1M17 37h1M59 37h1M17 38h1M16 41h1M23 41h1M17 44h1M17 45h1M33 45h1M55 45h1M28 46h1M16 47h2M23 47h1M26 47h1M37 47h1M29 48h1M32 48h1M16 49h2M35 50h1M61 50h1M16 51h1M18 51h1M52 51h1M17 52h1M15 53h1M18 53h1M18 54h1M13 55h1M16 55h1M18 56h1M16 57h1M18 57h1M17 58h1M18 59h1M20 59h1M16 60h1M16 61h1M18 61h1M49 61h1M16 62h1M44 62h1M17 63h2M17 65h2M20 65h1M19 67h1M18 68h1M19 69h1M34 69h1M47 70h1M49 70h3M22 71h1M38 71h3M50 71h2M43 72h1M46 72h1M24 73h1M25 76h1M27 78h1M36 87h1M49 87h1M38 88h2M41 88h3M45 88h3M50 88h1" />
<path stroke="#dc8490" d="M31 19h1M37 28h1M38 29h1M39 31h1M43 56h1" />
<path stroke="#ec9ca4" d="M34 19h1M35 20h1M33 22h1M35 23h1M32 24h1M34 24h1" />
<path stroke="#a46040" d="M50 19h1M54 19h1M51 20h5M53 21h5M61 21h1M51 22h2M54 22h2M60 22h1M52 23h4M57 23h1M62 23h1M51 24h2M54 24h2M60 24h2M53 25h5M59 25h1M62 25h1M51 26h7M59 26h1M18 27h1M54 27h6M61 27h1M53 28h1M55 28h1M57 28h1M63 28h1M19 29h1M54 29h6M53 30h1M55 30h2M18 31h1M58 31h2M55 32h5M53 33h1M57 33h5M31 34h1M34 34h1M60 34h1M21 35h1M37 35h1M49 35h1M39 36h1M44 36h1M47 36h1M40 37h1M47 37h1M42 38h2M45 38h3M47 44h1M47 45h1M47 47h1M47 49h1M29 50h1M49 50h1M56 50h1M22 51h1M27 51h1M31 51h1M49 51h1M55 51h1M58 51h1M62 51h1M21 52h1M48 52h1M51 52h2M58 52h4M65 52h1M22 53h1M50 53h1M52 53h1M63 53h1M65 53h1M48 54h1M52 54h1M63 54h2M22 55h2M51 55h2M63 55h2M53 56h1M62 56h3M36 57h1M49 57h2M53 57h1M63 57h1M22 58h1M24 58h1M49 58h1M52 58h1M54 58h1M62 58h2M23 59h1M51 59h1M61 59h2M23 60h1M35 60h1M38 60h1M40 60h1M51 60h1M53 60h1M55 60h1M60 60h1M62 60h1M64 60h1M24 61h1M34 61h1M36 61h2M54 61h2M61 61h3M22 62h1M24 62h1M53 62h3M60 62h2M64 62h1M24 63h1M55 63h1M61 63h4M55 64h2M59 64h3M64 64h1M52 65h2M56 65h2M59 65h1M61 65h3M42 66h1M51 66h2M54 66h1M56 66h6M63 66h2M23 67h1M31 67h1M44 67h3M52 67h1M60 67h2M63 67h1M28 68h1M32 68h1M37 68h1M41 68h1M45 68h1M50 68h2M55 68h1M57 68h1M59 68h2M25 69h1M57 69h1M61 69h1M63 69h1M24 70h1M27 70h1M29 70h1M31 70h1M59 70h1M61 70h1M60 71h2M30 72h3M57 72h1M59 72h1M31 73h1M53 73h3M57 73h2M51 74h3M60 74h1M37 75h1M45 75h1M47 75h3M52 75h1M54 75h3M40 76h3M46 76h1M52 76h1M56 76h1M58 76h1M29 77h1M31 77h1M36 77h1M46 77h1M52 77h1M54 77h2M30 78h1M32 78h1M37 78h1M52 78h1M54 78h1M30 79h1M32 79h1M53 80h1M32 81h2M53 81h1M32 82h1M51 82h2M33 83h2M50 83h1M52 83h2M50 84h2M35 85h2M51 85h1M37 87h1" />
<path stroke="#885438" d="M57 20h1M61 20h1M19 21h1M60 28h1M62 28h1M16 29h2M61 29h1M64 29h1M61 30h1M63 30h1M70 30h1M64 31h1M61 32h2M63 33h1M62 34h1M27 35h1M30 35h1M36 35h1M60 35h3M23 36h2M37 36h2M48 36h1M39 37h1M26 38h1M24 39h1M23 40h2M39 40h1M24 41h1M22 42h1M22 43h1M23 46h1M39 46h1M38 47h1M48 48h1M48 49h1M54 49h1M59 49h1M57 50h2M59 51h1M61 51h1M66 52h1M49 54h1M37 56h1M51 56h1M19 57h1M51 58h1M19 59h1M50 59h1M39 60h1M50 60h1M52 60h1M65 60h1M38 61h1M41 61h3M47 61h1M50 61h1M53 61h1M42 62h2M65 62h2M19 63h2M23 63h1M46 63h1M48 63h1M65 63h1M66 64h1M51 65h1M65 65h2M17 66h1M46 66h3M50 66h1M53 66h1M55 66h1M66 66h1M39 68h1M64 68h3M20 69h1M24 69h1M35 69h1M38 69h1M45 69h1M47 69h1M49 69h3M58 69h1M65 69h1M19 70h2M56 70h1M63 70h1M20 71h1M57 71h1M63 71h1M21 72h2M24 72h1M56 72h1M58 72h1M60 72h1M62 72h1M22 73h1M56 73h1M60 73h1M62 73h1M58 74h2M58 75h4M27 76h1M57 76h1M59 76h1M25 77h1M27 77h2M45 77h1M56 77h2M59 77h1M43 78h1M55 78h3M27 79h3M55 79h2M30 80h1M54 80h2M57 80h1M30 81h1M54 81h1M30 82h1M53 82h2M31 83h2M32 84h1M33 85h1M52 85h2M50 86h1M38 87h1M50 87h1" />
<path stroke="#b09c6c" d="M43 21h1M25 26h1M45 46h1M45 85h1" />
<path stroke="#9c6010" d="M60 21h1M64 21h1M58 22h1M63 22h1M58 24h1M60 25h1M63 25h1" />
<path stroke="#804408" d="M66 24h1" />
<path stroke="#4c2810" d="M16 26h1M37 37h1M28 39h1M48 39h1M56 39h1M26 40h2M33 40h3M34 41h1M52 41h1M58 41h1M61 42h1M25 44h1M35 44h1M51 44h1M63 45h1M58 46h1M68 46h1M41 62h1M34 71h1M21 74h1M20 75h1M22 75h1M20 77h1M23 77h1M24 78h1M26 80h1M64 81h1M62 82h1M64 82h1M56 86h1M59 86h1M34 87h1M57 87h1M33 88h1M35 88h1M38 89h4M46 89h1M53 89h1M42 90h1M50 90h4M38 91h2M41 91h1M47 91h1M49 91h1M43 92h2M46 92h2M50 92h1M42 94h1M45 94h3" />
<path stroke="#684018" d="M34 35h1M23 44h1M55 71h1M20 72h1M61 78h1M59 81h1M57 83h1" />
<path stroke="#646488" d="M25 36h1M29 36h2M53 36h3M22 37h1M57 37h1M20 41h1M69 44h1M69 45h1M40 46h1M66 49h1M52 50h1M65 50h1M53 51h1M24 52h1M53 52h3M63 52h1M28 53h1M31 53h1M33 53h1M56 53h1M62 53h1M48 100h1" />
<path stroke="#949594" d="M26 36h2M36 52h1M29 53h2M32 53h1M46 70h1M65 82h1M65 83h1M64 84h2M65 85h2M16 86h1M65 86h2M65 87h2M65 88h2M65 89h2M64 90h4M62 91h1M64 91h1M66 91h2M64 92h4M64 93h4M63 94h5M65 95h5M64 96h2M67 96h3M65 97h2M66 98h2M69 100h1M67 101h2M68 102h1M37 104h1M50 104h1M66 104h1M68 104h1M37 105h1M51 105h1M36 106h1M64 106h1M53 107h1M36 108h1M60 108h1" />
<path stroke="#9ca0ac" d="M28 36h1M16 84h1M61 85h1M64 86h1M16 87h1M63 90h1M65 91h1M69 97h1" />
<path stroke="#737573" d="M32 37h1M44 39h1M45 41h1M27 44h1M50 47h1M38 49h1M36 51h1M35 52h1M67 79h1M67 80h1M67 81h3M67 82h2M68 83h1M68 84h2M68 85h1M69 86h1M68 87h2M69 88h1M69 89h2M69 90h1M69 92h1M70 93h1M70 94h1M40 95h1M37 98h1M69 98h1M36 100h1M68 100h1M36 103h1M36 104h1M51 104h1M35 105h1M52 105h1M65 105h1M53 106h1M33 107h1M64 107h1M34 108h1M63 108h1" />
<path stroke="#8c64c4" d="M51 37h1" />
<path stroke="#d4d4e0" d="M52 37h1M55 37h1M22 83h1M24 84h1M48 94h1M17 103h1" />
<path stroke="#e0f4fc" d="M53 37h1M36 94h1M50 96h1M35 97h1M18 104h1M21 106h1M19 107h1" />
<path stroke="#e8e8e8" d="M54 37h1M24 85h1M23 87h1M25 87h2M24 88h1M28 88h1M22 89h1M26 89h1M28 89h1M30 89h1M25 90h1M29 90h1M31 90h2M22 91h1M27 91h1M30 91h1M32 91h1M21 92h1M29 92h1M31 92h5M19 93h1M31 93h4M36 93h2M50 93h4M20 94h1M32 94h2M51 94h3M17 95h1M19 95h1M23 95h1M33 95h2M39 95h1M48 95h1M52 95h1M17 96h3M22 96h1M25 96h1M33 96h2M51 96h2M18 97h2M22 97h2M34 97h1M36 97h1M51 97h2M19 98h1M22 98h1M36 98h1M51 98h1M17 99h1M20 99h5M36 99h1M51 99h1M17 100h1M19 100h1M21 100h1M25 100h1M17 101h2M20 101h5M35 101h1M17 102h3M21 102h4M19 103h1M22 103h3M26 103h1M34 103h1M19 104h2M22 104h4M53 104h1M22 105h5M33 105h1M19 106h2M24 106h2M27 106h1M54 106h1M21 107h1M24 107h2M32 107h1M18 108h1" />
<path stroke="#a8a8a8" d="M56 37h1M39 48h1M64 83h1M63 84h1M16 85h1M62 85h3M60 86h1M62 86h2M62 87h3M16 88h1M61 88h4M16 89h1M62 89h3M61 90h1M61 91h1M63 91h1M60 92h4M60 93h4M59 94h4M57 95h8M57 96h1M59 96h1M61 96h3M57 97h1M59 97h6M68 97h1M56 98h1M58 98h8M68 98h1M56 99h1M58 99h1M60 99h1M62 99h7M51 100h1M60 100h1M62 100h4M67 100h1M56 101h2M61 101h1M63 101h3M69 101h1M35 102h1M55 102h1M61 102h2M64 102h1M66 102h1M69 102h1M57 103h3M67 103h3M38 104h1M57 104h1M65 104h1M67 104h1M69 104h1M38 105h1M57 105h2M67 105h3M37 106h1M52 106h1M65 106h3M69 106h1M36 107h1M60 107h1M57 108h1M59 108h1M64 108h4" />
<path stroke="#381c00" d="M69 39h1M54 70h1M67 75h1M59 85h1" />
<path stroke="#b88888" d="M44 41h1M50 48h1M44 51h1M64 51h1M45 70h1M44 82h1M45 83h1M43 84h1" />
<path stroke="#642814" d="M61 41h1M25 42h1M53 43h1M64 43h1M53 45h1M75 51h1M22 76h1M40 93h1" />
<path stroke="#acacc0" d="M20 42h1M22 82h1M23 83h1M57 88h1" />
<path stroke="#1878dc" d="M29 42h1M57 42h1" />
<path stroke="#0060d4" d="M30 42h1M58 42h1M28 43h1M56 43h1M29 44h1M57 44h1" />
<path stroke="#0034a0" d="M31 42h1M59 42h1M29 43h1M57 43h1M30 45h1M58 45h1" />
<path stroke="#0048b8" d="M32 43h1M60 43h1M31 44h1M59 44h1" />
<path stroke="#98845c" d="M49 46h1M42 70h1M42 71h2M46 71h2M36 76h1" />
<path stroke="#949464" d="M37 51h1" />
<path stroke="#b8b8b8" d="M25 52h1M18 79h2M18 80h3M17 81h2M17 82h1M20 82h1M17 83h2M17 84h1M17 85h1M61 86h1M59 87h3M17 88h1M59 88h2M59 89h3M59 90h2M62 90h1M59 91h2M59 92h1M57 93h3M56 94h3M56 95h1M55 96h2M58 96h1M60 96h1M54 97h3M58 97h1M17 98h1M50 98h1M54 98h2M57 98h1M53 99h3M57 99h1M59 99h1M61 99h1M54 100h6M61 100h1M66 100h1M53 101h1M55 101h1M58 101h3M62 101h1M66 101h1M53 102h1M56 102h5M63 102h1M65 102h1M33 103h1M54 103h3M60 103h6M34 104h1M54 104h3M58 104h6M50 105h1M53 105h1M56 105h1M59 105h2M62 105h1M66 105h1M22 106h1M38 106h1M51 106h1M55 106h7M68 106h1M37 107h1M57 107h1M61 107h1M63 107h1M65 107h4M23 108h1M31 108h1M37 108h1M52 108h2M56 108h1M58 108h1M61 108h2M68 108h1" />
<path stroke="#fc6458" d="M56 56h1M29 58h1M32 58h1" />
<path stroke="#cc687c" d="M44 57h1" />
<path stroke="#d43434" d="M61 58h1M59 62h1" />
<path stroke="#ac3434" d="M63 60h1M45 73h1M48 73h1M40 75h1M44 75h1" />
<path stroke="#bc546c" d="M39 73h1" />
<path stroke="#4c2800" d="M20 74h1" />
<path stroke="#3c0000" d="M67 77h1" />
<path stroke="#201800" d="M65 78h1" />
<path stroke="#c8c8c8" d="M19 81h2M18 82h2M19 83h2M18 84h4M18 85h4M17 86h3M17 87h3M28 87h1M18 88h1M58 88h1M17 89h1M19 89h1M56 89h3M18 90h1M54 90h1M56 90h1M58 90h1M53 91h1M57 91h2M17 92h2M57 92h2M18 94h1M29 94h1M28 95h3M55 95h1M21 96h1M27 96h1M29 96h3M38 96h1M54 96h1M29 97h4M53 97h1M27 98h7M53 98h1M30 99h4M52 99h1M18 100h1M29 100h4M34 100h1M53 100h1M29 101h1M31 101h1M33 101h2M54 101h1M29 102h5M52 102h1M54 102h1M29 103h1M31 103h2M21 104h1M28 104h3M32 104h1M64 104h1M29 105h2M32 105h1M54 105h2M61 105h1M63 105h2M30 106h1M32 106h1M62 106h2M23 107h1M31 107h1M38 107h1M52 107h1M56 107h1M58 107h2M62 107h1M26 108h2M29 108h2M48 108h4" />
<path stroke="#b0b8c4" d="M21 81h1M31 89h1" />
<path stroke="#838583" d="M66 81h1M66 82h1M66 83h2M66 84h2M67 85h1M67 86h2M67 87h1M67 88h2M67 89h2M68 90h1M68 91h2M68 92h1M68 93h2M68 94h2M66 96h1M67 97h1M69 99h1M67 102h1M37 103h1M52 103h1M66 103h1M36 105h1M35 106h1M35 107h1M35 108h1M54 108h1" />
<path stroke="#d8d8d8" d="M21 82h1M22 84h2M22 85h2M25 85h1M20 86h7M20 87h3M24 87h1M27 87h1M19 88h5M25 88h3M29 88h1M18 89h1M20 89h2M23 89h3M27 89h1M29 89h1M19 90h6M26 90h3M30 90h1M55 90h1M57 90h1M17 91h5M23 91h4M28 91h2M31 91h1M33 91h2M54 91h3M19 92h2M22 92h7M30 92h1M51 92h6M17 93h2M20 93h11M54 93h3M17 94h1M19 94h1M21 94h7M30 94h2M54 94h1M18 95h1M20 95h3M24 95h4M31 95h2M53 95h2M20 96h1M23 96h2M26 96h1M28 96h1M32 96h1M53 96h1M17 97h1M20 97h2M24 97h5M33 97h1M20 98h2M23 98h4M34 98h2M52 98h1M25 99h5M34 99h2M22 100h3M26 100h3M33 100h1M35 100h1M25 101h4M30 101h1M32 101h1M52 101h1M20 102h1M25 102h4M25 103h1M27 103h2M30 103h1M53 103h1M26 104h2M31 104h1M33 104h1M21 105h1M27 105h2M31 105h1M49 105h1M26 106h1M28 106h2M31 106h1M33 106h1M48 106h3M22 107h1M26 107h5M48 107h4M54 107h2M19 108h4M24 108h2M28 108h1M32 108h1M55 108h1" />
<path stroke="#ccd0dc" d="M21 83h1M17 90h1M28 94h1M55 94h1M18 99h1M52 100h1M19 101h1M34 102h1M20 103h1M17 104h1" />
<path stroke="#8484a4" d="M16 90h1M69 107h1" />
<path stroke="#fcf4ec" d="M35 93h1M50 94h1M36 95h1M38 95h1M51 95h1M35 96h1M18 98h1M19 99h1M20 100h1M18 103h1M21 103h1M19 105h2M23 106h1M20 107h1" />
<path stroke="#fcfcfc" d="M34 94h2M37 94h2M49 94h1M35 95h1M37 95h1M49 95h2M36 96h2M49 96h1M37 97h1M50 97h1M18 105h1M18 106h1M18 107h1" />
<path stroke="#1c448c" d="M41 95h1" />
<path stroke="#104060" d="M46 96h1M43 97h1M41 98h1M41 100h1M46 101h1M38 103h1" />
<path stroke="#0c2468" d="M49 97h1M38 99h1M41 104h1" />
<path stroke="#286078" d="M46 98h1" />
<path stroke="#18506c" d="M48 98h1M42 105h1M44 105h1" />
<path stroke="#14347c" d="M43 99h1M36 101h1M42 101h1M43 103h1" />
</svg>
